<?xml version="1.0" encoding="UTF-8"?>
<svg width="35px" height="39px" viewBox="0 0 35 39" version="1.1" xmlns="http://www.w3.org/2000/svg" xmlns:xlink="http://www.w3.org/1999/xlink">
    <!-- Generator: Sketch 48.2 (47327) - http://www.bohemiancoding.com/sketch -->
    <title>calendar-solid</title>
    <desc>Created with Sketch.</desc>
    <defs></defs>
    <g id="Desktop-HD-Copy" stroke="none" stroke-width="1" fill="none" fill-rule="evenodd" transform="translate(-738.000000, -106.000000)">
        <g id="calendar-solid" transform="translate(738.000000, 106.000000)" fill="#6E6E6E" fill-rule="nonzero">
            <path d="M0.9140625,14.625 L33.2109375,14.625 C33.7136719,14.625 34.125,15.0363281 34.125,15.5390625 L34.125,35.34375 C34.125,37.3623047 32.4873047,39 30.46875,39 L3.65625,39 C1.63769531,39 0,37.3623047 0,35.34375 L0,15.5390625 C0,15.0363281 0.411328125,14.625 0.9140625,14.625 Z M34.125,11.2734375 L34.125,8.53125 C34.125,6.51269531 32.4873047,4.875 30.46875,4.875 L26.8125,4.875 L26.8125,0.9140625 C26.8125,0.411328125 26.4011719,0 25.8984375,0 L22.8515625,0 C22.3488281,0 21.9375,0.411328125 21.9375,0.9140625 L21.9375,4.875 L12.1875,4.875 L12.1875,0.9140625 C12.1875,0.411328125 11.7761719,0 11.2734375,0 L8.2265625,0 C7.72382812,0 7.3125,0.411328125 7.3125,0.9140625 L7.3125,4.875 L3.65625,4.875 C1.63769531,4.875 0,6.51269531 0,8.53125 L0,11.2734375 C0,11.7761719 0.411328125,12.1875 0.9140625,12.1875 L33.2109375,12.1875 C33.7136719,12.1875 34.125,11.7761719 34.125,11.2734375 Z" id="Shape"></path>
        </g>
    </g>
</svg>