<?xml version="1.0" encoding="UTF-8"?>
<svg width="22px" height="20px" viewBox="0 0 22 20" version="1.1" xmlns="http://www.w3.org/2000/svg" xmlns:xlink="http://www.w3.org/1999/xlink">
    <!-- Generator: Sketch 48.2 (47327) - http://www.bohemiancoding.com/sketch -->
    <title>career_ico</title>
    <desc>Created with Sketch.</desc>
    <defs></defs>
    <g id="Desktop-HD" stroke="none" stroke-width="1" fill="none" fill-rule="evenodd" transform="translate(-33.000000, -453.000000)">
        <g id="menu" transform="translate(32.000000, 267.000000)" fill="#A6A6A6" fill-rule="nonzero">
            <g id="career_menu" transform="translate(1.000000, 184.000000)">
                <path d="M13.75,13 L22,13 L22,19.1875 C22,20.3266016 21.0766016,21.25 19.9375,21.25 L2.0625,21.25 C0.923398437,21.25 0,20.3266016 0,19.1875 L0,13 L8.25,13 L8.25,13.859375 C8.25,14.1441289 8.48087109,14.375 8.765625,14.375 L13.234375,14.375 C13.5191289,14.375 13.75,14.1441289 13.75,13.859375 L13.75,13 Z M22,8.1875 L22,11.625 L0,11.625 L0,8.1875 C0,7.04839844 0.923398437,6.125 2.0625,6.125 L5.5,6.125 L5.5,4.0625 C5.5,2.92339844 6.42339844,2 7.5625,2 L14.4375,2 C15.5766016,2 16.5,2.92339844 16.5,4.0625 L16.5,6.125 L19.9375,6.125 C21.0766016,6.125 22,7.04839844 22,8.1875 Z M13.75,4.75 L8.25,4.75 L8.25,6.125 L13.75,6.125 L13.75,4.75 Z" id="career_ico"></path>
            </g>
        </g>
    </g>
</svg>