<?xml version="1.0" encoding="UTF-8"?>
<svg width="22px" height="18px" viewBox="0 0 22 18" version="1.1" xmlns="http://www.w3.org/2000/svg" xmlns:xlink="http://www.w3.org/1999/xlink">
    <!-- Generator: Sketch 48.2 (47327) - http://www.bohemiancoding.com/sketch -->
    <title>Shape</title>
    <desc>Created with Sketch.</desc>
    <defs></defs>
    <g id="Desktop-HD" stroke="none" stroke-width="1" fill="none" fill-rule="evenodd" transform="translate(-110.000000, -138.000000)">
        <g id="chat_btn" transform="translate(42.000000, 125.000000)" fill="#FFFFFF" fill-rule="nonzero">
            <g id="comments-solid" transform="translate(68.000000, 13.000000)">
                <path d="M15.8888889,6.11111111 C15.8888889,2.73472222 12.3329861,0 7.94444444,0 C3.55590278,0 0,2.73472222 0,6.11111111 C0,7.42118056 0.538541667,8.628125 1.45138889,9.625 C0.939583333,10.7784722 0.0954861111,11.6951389 0.0840277778,11.7065972 C1.01770444e-16,11.7944444 -0.0229166667,11.9243056 0.0267361111,12.0388889 C0.0763888889,12.1534722 0.183333333,12.2222222 0.305555556,12.2222222 C1.70347222,12.2222222 2.86076389,11.7524306 3.69340278,11.2673611 C4.92326389,11.8670139 6.37847222,12.2222222 7.94444444,12.2222222 C12.3329861,12.2222222 15.8888889,9.4875 15.8888889,6.11111111 Z M20.5486111,14.5138889 C21.4614583,13.5208333 22,12.3100694 22,11 C22,8.44479167 19.9565972,6.25625 17.0614583,5.34340278 C17.0958333,5.59548611 17.1111111,5.85138889 17.1111111,6.11111111 C17.1111111,10.1559028 12.9975694,13.4444444 7.94444444,13.4444444 C7.53194444,13.4444444 7.13090278,13.4138889 6.73368056,13.371875 C7.93680556,15.5680556 10.7631944,17.1111111 14.0555556,17.1111111 C15.6215278,17.1111111 17.0767361,16.7597222 18.3065972,16.15625 C19.1392361,16.6413194 20.2965278,17.1111111 21.6944444,17.1111111 C21.8166667,17.1111111 21.9274306,17.0385417 21.9732639,16.9277778 C22.0229167,16.8170139 22,16.6871528 21.9159722,16.5954861 C21.9045139,16.5840278 21.0604167,15.6711806 20.5486111,14.5138889 Z" id="Shape"></path>
            </g>
        </g>
    </g>
</svg>