<?xml version="1.0" encoding="UTF-8"?>
<svg width="22px" height="20px" viewBox="0 0 22 20" version="1.1" xmlns="http://www.w3.org/2000/svg" xmlns:xlink="http://www.w3.org/1999/xlink">
    <!-- Generator: Sketch 48.2 (47327) - http://www.bohemiancoding.com/sketch -->
    <title>coursework_ico</title>
    <desc>Created with Sketch.</desc>
    <defs></defs>
    <g id="Desktop-HD" stroke="none" stroke-width="1" fill="none" fill-rule="evenodd" transform="translate(-33.000000, -391.000000)">
        <g id="menu" transform="translate(32.000000, 267.000000)" fill="#A6A6A6" fill-rule="nonzero">
            <g id="coursework_menu" transform="translate(1.000000, 123.000000)">
                <path d="M15.3770833,4.17786458 L18.8222222,7.62300347 C18.9673611,7.76814236 18.9673611,8.00494792 18.8222222,8.15008681 L10.4805556,16.4917535 L6.93611111,16.8851563 C6.4625,16.9386285 6.06145833,16.5375868 6.11493056,16.0639757 L6.50833333,12.5195312 L14.85,4.17786458 C14.9951389,4.03272569 15.2319444,4.03272569 15.3770833,4.17786458 Z M21.5645833,3.30321181 L19.7006944,1.43932292 C19.1201389,0.858767361 18.1767361,0.858767361 17.5923611,1.43932292 L16.2402778,2.79140625 C16.0951389,2.93654514 16.0951389,3.17335069 16.2402778,3.31848958 L19.6854167,6.76362847 C19.8305556,6.90876736 20.0673611,6.90876736 20.2125,6.76362847 L21.5645833,5.41154514 C22.1451389,4.82717014 22.1451389,3.88376736 21.5645833,3.30321181 Z M14.6666667,14.2230035 L14.6666667,18.1111979 L2.44444444,18.1111979 L2.44444444,5.88897569 L11.2215278,5.88897569 C11.34375,5.88897569 11.4583333,5.83932292 11.5461806,5.75529514 L13.0739583,4.22751736 C13.3642361,3.93723958 13.1579861,3.44453125 12.7493056,3.44453125 L1.83333333,3.44453125 C0.821180556,3.44453125 0,4.26571181 0,5.27786458 L0,18.722309 C0,19.7344618 0.821180556,20.5556424 1.83333333,20.5556424 L15.2777778,20.5556424 C16.2899306,20.5556424 17.1111111,19.7344618 17.1111111,18.722309 L17.1111111,12.6952257 C17.1111111,12.2865451 16.6184028,12.0841146 16.328125,12.3705729 L14.8003472,13.8983507 C14.7163194,13.9861979 14.6666667,14.1007812 14.6666667,14.2230035 Z" id="coursework_ico"></path>
            </g>
        </g>
    </g>
</svg>