<?xml version="1.0" encoding="UTF-8"?>
<svg width="22px" height="18px" viewBox="0 0 22 18" version="1.1" xmlns="http://www.w3.org/2000/svg" xmlns:xlink="http://www.w3.org/1999/xlink">
    <!-- Generator: Sketch 48.2 (47327) - http://www.bohemiancoding.com/sketch -->
    <title>docs_ico</title>
    <desc>Created with Sketch.</desc>
    <defs></defs>
    <g id="Desktop-HD" stroke="none" stroke-width="1" fill="none" fill-rule="evenodd" transform="translate(-32.000000, -516.000000)">
        <g id="menu" transform="translate(32.000000, 267.000000)" fill="#A6A6A6" fill-rule="nonzero">
            <g id="docs_menu" transform="translate(0.000000, 246.000000)">
                <path d="M20.710151,3.04642585 C18.6170592,3.16521263 14.4568481,3.59758125 11.8886091,5.16969186 C11.7113838,5.27816596 11.6109306,5.47105126 11.6109306,5.67272142 L11.6109306,19.5707751 C11.6109306,20.0119286 12.0933349,20.2907529 12.5001127,20.0860271 C15.1424503,18.7560735 18.9638707,18.3932199 20.8533827,18.2939127 C21.4984981,18.259919 21.9999998,17.7427573 21.9999998,17.1228507 L21.9999998,4.21901564 C22.0003818,3.54258029 21.4137049,3.00670294 20.710151,3.04642585 Z M10.1113907,5.16969186 C7.54353368,3.59758125 3.3833226,3.16559458 1.29023072,3.04642585 C0.586676847,3.00670294 0,3.54258029 0,4.21901564 L0,17.1232326 C0,17.7435212 0.501501758,18.2606829 1.14661712,18.2942946 C3.03689298,18.3936019 6.86022321,18.7568374 9.50256073,20.0875549 C9.90819277,20.2918987 10.3890692,20.0134564 10.3890692,19.5734487 L10.3890692,5.6658463 C10.3890692,5.46379419 10.288998,5.27854791 10.1113907,5.16969186 Z" id="docs_ico"></path>
            </g>
        </g>
    </g>
</svg>