<?xml version="1.0" encoding="UTF-8"?>
<svg width="24px" height="21px" viewBox="0 0 24 21" version="1.1" xmlns="http://www.w3.org/2000/svg" xmlns:xlink="http://www.w3.org/1999/xlink">
    <!-- Generator: Sketch 48.2 (47327) - http://www.bohemiancoding.com/sketch -->
    <title>Shape</title>
    <desc>Created with Sketch.</desc>
    <defs></defs>
    <g id="Desktop-HD" stroke="none" stroke-width="1" fill="none" fill-rule="evenodd" transform="translate(-315.000000, -35.000000)">
        <g id="bars-solid" transform="translate(315.000000, 35.000000)" fill="#6E6E6E" fill-rule="nonzero">
            <path d="M0.857142857,3.85714286 L23.1428571,3.85714286 C23.6162679,3.85714286 24,3.47341071 24,3 L24,0.857142857 C24,0.383732143 23.6162679,0 23.1428571,0 L0.857142857,0 C0.383732143,0 0,0.383732143 0,0.857142857 L0,3 C0,3.47341071 0.383732143,3.85714286 0.857142857,3.85714286 Z M0.857142857,12.4285714 L23.1428571,12.4285714 C23.6162679,12.4285714 24,12.0448393 24,11.5714286 L24,9.42857143 C24,8.95516071 23.6162679,8.57142857 23.1428571,8.57142857 L0.857142857,8.57142857 C0.383732143,8.57142857 0,8.95516071 0,9.42857143 L0,11.5714286 C0,12.0448393 0.383732143,12.4285714 0.857142857,12.4285714 Z M0.857142857,21 L23.1428571,21 C23.6162679,21 24,20.6162679 24,20.1428571 L24,18 C24,17.5265893 23.6162679,17.1428571 23.1428571,17.1428571 L0.857142857,17.1428571 C0.383732143,17.1428571 0,17.5265893 0,18 L0,20.1428571 C0,20.6162679 0.383732143,21 0.857142857,21 Z" id="Shape"></path>
        </g>
    </g>
</svg>