<?xml version="1.0" encoding="UTF-8"?>
<svg width="22px" height="26px" viewBox="0 0 22 26" version="1.1" xmlns="http://www.w3.org/2000/svg" xmlns:xlink="http://www.w3.org/1999/xlink">
    <!-- Generator: Sketch 48.2 (47327) - http://www.bohemiancoding.com/sketch -->
    <title>sessions_ico</title>
    <desc>Created with Sketch.</desc>
    <defs></defs>
    <g id="Desktop-HD" stroke="none" stroke-width="1" fill="none" fill-rule="evenodd" transform="translate(-32.000000, -330.000000)">
        <g id="menu" transform="translate(32.000000, 267.000000)" fill="#A6A6A6" fill-rule="nonzero">
            <g id="sessions_menu" transform="translate(0.000000, 61.000000)">
                <path d="M22,19.6785714 L22,3.17857143 C22,2.52544643 21.4745536,2 20.8214286,2 L4.71428571,2 C2.11160714,2 0,4.11160714 0,6.71428571 L0,22.4285714 C0,25.03125 2.11160714,27.1428571 4.71428571,27.1428571 L20.8214286,27.1428571 C21.4745536,27.1428571 22,26.6174107 22,25.9642857 L22,25.1785714 C22,24.8102679 21.828125,24.4763393 21.5629464,24.2602679 C21.3566964,23.5040179 21.3566964,21.3482143 21.5629464,20.5919643 C21.828125,20.3808036 22,20.046875 22,19.6785714 Z M6.28571429,8.58035714 C6.28571429,8.41830357 6.41830357,8.28571429 6.58035714,8.28571429 L16.9910714,8.28571429 C17.153125,8.28571429 17.2857143,8.41830357 17.2857143,8.58035714 L17.2857143,9.5625 C17.2857143,9.72455357 17.153125,9.85714286 16.9910714,9.85714286 L6.58035714,9.85714286 C6.41830357,9.85714286 6.28571429,9.72455357 6.28571429,9.5625 L6.28571429,8.58035714 Z M6.28571429,11.7232143 C6.28571429,11.5611607 6.41830357,11.4285714 6.58035714,11.4285714 L16.9910714,11.4285714 C17.153125,11.4285714 17.2857143,11.5611607 17.2857143,11.7232143 L17.2857143,12.7053571 C17.2857143,12.8674107 17.153125,13 16.9910714,13 L6.58035714,13 C6.41830357,13 6.28571429,12.8674107 6.28571429,12.7053571 L6.28571429,11.7232143 Z M18.7294643,24 L4.71428571,24 C3.84508929,24 3.14285714,23.2977679 3.14285714,22.4285714 C3.14285714,21.5642857 3.85,20.8571429 4.71428571,20.8571429 L18.7294643,20.8571429 C18.6361607,21.696875 18.6361607,23.1602679 18.7294643,24 Z" id="sessions_ico"></path>
            </g>
        </g>
    </g>
</svg>