<?xml version="1.0" encoding="UTF-8"?>
<svg width="22px" height="20px" viewBox="0 0 22 20" version="1.1" xmlns="http://www.w3.org/2000/svg" xmlns:xlink="http://www.w3.org/1999/xlink">
    <!-- Generator: Sketch 48.2 (47327) - http://www.bohemiancoding.com/sketch -->
    <title>wall_ico</title>
    <desc>Created with Sketch.</desc>
    <defs></defs>
    <g id="Desktop-HD" stroke="none" stroke-width="1" fill="none" fill-rule="evenodd" transform="translate(-33.000000, -268.000000)">
        <g id="menu" transform="translate(32.000000, 267.000000)" fill="#A6A6A6" fill-rule="nonzero">
            <g id="wall_menu" transform="translate(1.000000, 0.000000)">
                <path d="M19.9375,21 L2.0625,21 C0.923398437,21 0,20.040625 0,18.8571429 L0,3.14285714 C0,1.959375 0.923398437,1 2.0625,1 L19.9375,1 C21.0766016,1 22,1.959375 22,3.14285714 L22,18.8571429 C22,20.040625 21.0766016,21 19.9375,21 Z M5.5,4.92857143 C4.55077734,4.92857143 3.78125,5.72808036 3.78125,6.71428571 C3.78125,7.70049107 4.55077734,8.5 5.5,8.5 C6.44922266,8.5 7.21875,7.70049107 7.21875,6.71428571 C7.21875,5.72808036 6.44922266,4.92857143 5.5,4.92857143 Z M5.5,9.21428571 C4.55077734,9.21428571 3.78125,10.0137946 3.78125,11 C3.78125,11.9862054 4.55077734,12.7857143 5.5,12.7857143 C6.44922266,12.7857143 7.21875,11.9862054 7.21875,11 C7.21875,10.0137946 6.44922266,9.21428571 5.5,9.21428571 Z M5.5,13.5 C4.55077734,13.5 3.78125,14.2995089 3.78125,15.2857143 C3.78125,16.2719196 4.55077734,17.0714286 5.5,17.0714286 C6.44922266,17.0714286 7.21875,16.2719196 7.21875,15.2857143 C7.21875,14.2995089 6.44922266,13.5 5.5,13.5 Z M17.875,7.42857143 L17.875,6 C17.875,5.70415179 17.6441289,5.46428571 17.359375,5.46428571 L8.765625,5.46428571 C8.48087109,5.46428571 8.25,5.70415179 8.25,6 L8.25,7.42857143 C8.25,7.72441964 8.48087109,7.96428571 8.765625,7.96428571 L17.359375,7.96428571 C17.6441289,7.96428571 17.875,7.72441964 17.875,7.42857143 Z M17.875,11.7142857 L17.875,10.2857143 C17.875,9.98986607 17.6441289,9.75 17.359375,9.75 L8.765625,9.75 C8.48087109,9.75 8.25,9.98986607 8.25,10.2857143 L8.25,11.7142857 C8.25,12.0101339 8.48087109,12.25 8.765625,12.25 L17.359375,12.25 C17.6441289,12.25 17.875,12.0101339 17.875,11.7142857 Z M17.875,16 L17.875,14.5714286 C17.875,14.2755804 17.6441289,14.0357143 17.359375,14.0357143 L8.765625,14.0357143 C8.48087109,14.0357143 8.25,14.2755804 8.25,14.5714286 L8.25,16 C8.25,16.2958482 8.48087109,16.5357143 8.765625,16.5357143 L17.359375,16.5357143 C17.6441289,16.5357143 17.875,16.2958482 17.875,16 Z" id="wall_ico"></path>
            </g>
        </g>
    </g>
</svg>